<?xml version="1.0" encoding="UTF-8" standalone="no"?>
<!DOCTYPE svg PUBLIC "-//W3C//DTD SVG 1.1//EN" "http://www.w3.org/Graphics/SVG/1.1/DTD/svg11.dtd">
<svg version="1.1" xmlns="http://www.w3.org/2000/svg" xmlns:xlink="http://www.w3.org/1999/xlink" preserveAspectRatio="xMidYMid meet" viewBox="0 0 640 640" width="640" height="640"><defs><path d="M211.86 304.28C207.3 312.19 207.31 321.92 211.87 329.83C221.96 347.3 244.84 386.93 254.93 404.4C259.49 412.3 267.92 417.17 277.04 417.18C297.2 417.19 342.9 417.21 363.06 417.22C372.18 417.23 380.61 412.36 385.17 404.46C395.24 387 418.07 347.4 428.14 329.95C432.7 322.04 432.69 312.3 428.13 304.4C418.04 286.93 395.16 247.3 385.07 229.83C380.51 221.92 372.08 217.05 362.96 217.05C342.8 217.04 297.1 217.01 276.94 217C267.82 217 259.39 221.87 254.83 229.77C244.76 247.23 221.93 286.82 211.86 304.28Z" id="b5R8zEBgWF"></path><path d="M369.45 305.36L370.65 305.83L371.78 306.42L372.84 307.12L373.83 307.92L374.72 308.82L375.53 309.8L376.22 310.87L376.81 312L377.28 313.2L377.63 314.46L377.84 315.77L377.92 317.11L377.84 318.46L377.63 319.77L377.28 321.03L376.81 322.23L376.22 323.36L375.53 324.42L374.72 325.41L373.83 326.3L372.84 327.11L371.78 327.8L370.65 328.39L369.45 328.86L368.19 329.21L366.88 329.42L365.53 329.5L322.12 329.5L322.12 349.63L322.11 350.08L322.07 350.52L322.01 350.95L321.93 351.36L321.82 351.77L321.7 352.16L321.55 352.54L321.38 352.92L321.19 353.27L320.99 353.62L320.77 353.95L320.53 354.27L320.27 354.57L320 354.86L319.72 355.13L319.42 355.39L319.12 355.63L318.79 355.85L318.46 356.06L318.12 356.25L317.77 356.42L317.41 356.58L317.04 356.71L316.67 356.83L316.29 356.93L315.9 357L315.51 357.06L315.12 357.1L314.72 357.11L314.32 357.11L313.92 357.08L313.52 357.03L313.12 356.96L312.73 356.86L312.33 356.74L311.94 356.6L311.55 356.43L311.16 356.23L310.78 356.02L310.4 355.77L300.09 348.62L276.65 332.38L266.34 325.23L265.92 324.93L265.53 324.61L265.16 324.28L264.81 323.93L264.48 323.57L264.17 323.2L263.88 322.81L263.61 322.41L263.37 322.01L263.15 321.59L262.95 321.17L262.76 320.74L262.6 320.3L262.47 319.85L262.35 319.4L262.25 318.95L262.18 318.49L262.13 318.04L262.09 317.57L262.08 317.11L262.09 316.65L262.13 316.19L262.18 315.73L262.25 315.27L262.35 314.82L262.47 314.37L262.6 313.93L262.76 313.49L262.95 313.06L263.15 312.63L263.37 312.22L263.61 311.81L263.88 311.42L264.17 311.03L264.48 310.66L264.81 310.3L265.16 309.95L265.53 309.61L265.92 309.29L266.34 308.99L276.65 301.84L300.09 285.6L310.4 278.46L310.78 278.21L311.16 277.99L311.55 277.8L311.94 277.63L312.33 277.49L312.73 277.37L313.12 277.27L313.52 277.2L313.92 277.15L314.32 277.12L314.72 277.11L315.12 277.13L315.51 277.17L315.9 277.22L316.29 277.3L316.67 277.4L317.04 277.52L317.41 277.65L317.77 277.81L318.12 277.98L318.46 278.17L318.79 278.38L319.12 278.6L319.42 278.84L319.72 279.1L320 279.37L320.27 279.66L320.53 279.96L320.77 280.28L320.99 280.61L321.19 280.95L321.38 281.31L321.55 281.68L321.7 282.07L321.82 282.46L321.93 282.87L322.01 283.28L322.07 283.71L322.11 284.15L322.12 284.59L322.12 304.73L365.53 304.73L366.88 304.8L368.19 305.02L369.45 305.36Z" id="ba5J0lIPa"></path></defs><g><g><g><g><filter id="shadow5027999" x="195.45" y="204" width="254.11" height="231.22" filterUnits="userSpaceOnUse" primitiveUnits="userSpaceOnUse"><feFlood></feFlood><feComposite in2="SourceAlpha" operator="in"></feComposite><feGaussianBlur stdDeviation="1"></feGaussianBlur><feOffset dx="5" dy="5" result="afterOffset"></feOffset><feFlood flood-color="#000000" flood-opacity="0.75"></feFlood><feComposite in2="afterOffset" operator="in"></feComposite><feMorphology operator="dilate" radius="1"></feMorphology><feComposite in2="SourceAlpha" operator="out"></feComposite></filter><path d="M211.86 304.28C207.3 312.19 207.31 321.92 211.87 329.83C221.96 347.3 244.84 386.93 254.93 404.4C259.49 412.3 267.92 417.17 277.04 417.18C297.2 417.19 342.9 417.21 363.06 417.22C372.18 417.23 380.61 412.36 385.17 404.46C395.24 387 418.07 347.4 428.14 329.95C432.7 322.04 432.69 312.3 428.13 304.4C418.04 286.93 395.16 247.3 385.07 229.83C380.51 221.92 372.08 217.05 362.96 217.05C342.8 217.04 297.1 217.01 276.94 217C267.82 217 259.39 221.87 254.83 229.77C244.76 247.23 221.93 286.82 211.86 304.28Z" id="c5jwle6Ge" fill="white" fill-opacity="1" filter="url(#shadow5027999)"></path></g><use xlink:href="#b5R8zEBgWF" opacity="1" fill="#5f5e5e" fill-opacity="1"></use></g><g><g><filter id="shadow16458203" x="250.08" y="265.11" width="143.83" height="108" filterUnits="userSpaceOnUse" primitiveUnits="userSpaceOnUse"><feFlood></feFlood><feComposite in2="SourceAlpha" operator="in"></feComposite><feGaussianBlur stdDeviation="1"></feGaussianBlur><feOffset dx="4" dy="4" result="afterOffset"></feOffset><feFlood flood-color="#000000" flood-opacity="0.5"></feFlood><feComposite in2="afterOffset" operator="in"></feComposite><feMorphology operator="dilate" radius="1"></feMorphology><feComposite in2="SourceAlpha" operator="out"></feComposite></filter><path d="M369.45 305.36L370.65 305.83L371.78 306.42L372.84 307.12L373.83 307.92L374.72 308.82L375.53 309.8L376.22 310.87L376.81 312L377.28 313.2L377.63 314.46L377.84 315.77L377.92 317.11L377.84 318.46L377.63 319.77L377.28 321.03L376.81 322.23L376.22 323.36L375.53 324.42L374.72 325.41L373.83 326.3L372.84 327.11L371.78 327.8L370.65 328.39L369.45 328.86L368.19 329.21L366.88 329.42L365.53 329.5L322.12 329.5L322.12 349.63L322.11 350.08L322.07 350.52L322.01 350.95L321.93 351.36L321.82 351.77L321.7 352.16L321.55 352.54L321.38 352.92L321.19 353.27L320.99 353.62L320.77 353.95L320.53 354.27L320.27 354.57L320 354.86L319.72 355.13L319.42 355.39L319.12 355.63L318.79 355.85L318.46 356.06L318.12 356.25L317.77 356.42L317.41 356.58L317.04 356.71L316.67 356.83L316.29 356.93L315.9 357L315.51 357.06L315.12 357.1L314.72 357.11L314.32 357.11L313.92 357.08L313.52 357.03L313.12 356.96L312.73 356.86L312.33 356.74L311.94 356.6L311.55 356.43L311.16 356.23L310.78 356.02L310.4 355.77L300.09 348.62L276.65 332.38L266.34 325.23L265.92 324.93L265.53 324.61L265.16 324.28L264.81 323.93L264.48 323.57L264.17 323.2L263.88 322.81L263.61 322.41L263.37 322.01L263.15 321.59L262.95 321.17L262.76 320.74L262.6 320.3L262.47 319.85L262.35 319.4L262.25 318.95L262.18 318.49L262.13 318.04L262.09 317.57L262.08 317.11L262.09 316.65L262.13 316.19L262.18 315.73L262.25 315.27L262.35 314.82L262.47 314.37L262.6 313.93L262.76 313.49L262.95 313.06L263.15 312.63L263.37 312.22L263.61 311.81L263.88 311.42L264.17 311.03L264.48 310.66L264.81 310.3L265.16 309.95L265.53 309.61L265.92 309.29L266.34 308.99L276.65 301.84L300.09 285.6L310.4 278.46L310.78 278.21L311.16 277.99L311.55 277.8L311.94 277.63L312.33 277.49L312.73 277.37L313.12 277.27L313.52 277.2L313.92 277.15L314.32 277.12L314.72 277.11L315.12 277.13L315.51 277.17L315.9 277.22L316.29 277.3L316.67 277.4L317.04 277.52L317.41 277.65L317.77 277.81L318.12 277.98L318.46 278.17L318.79 278.38L319.12 278.6L319.42 278.84L319.72 279.1L320 279.37L320.27 279.66L320.53 279.96L320.77 280.28L320.99 280.61L321.19 280.95L321.38 281.31L321.55 281.68L321.7 282.07L321.82 282.46L321.93 282.87L322.01 283.28L322.07 283.71L322.11 284.15L322.12 284.59L322.12 304.73L365.53 304.73L366.88 304.8L368.19 305.02L369.45 305.36Z" id="d1gLSHmybn" fill="white" fill-opacity="1" filter="url(#shadow16458203)"></path></g><use xlink:href="#ba5J0lIPa" opacity="1" fill="#ffffff" fill-opacity="1"></use></g></g></g></svg>