<?xml version="1.0" encoding="UTF-8" standalone="no"?>
<!DOCTYPE svg PUBLIC "-//W3C//DTD SVG 1.1//EN" "http://www.w3.org/Graphics/SVG/1.1/DTD/svg11.dtd">
<svg version="1.1" xmlns="http://www.w3.org/2000/svg" xmlns:xlink="http://www.w3.org/1999/xlink" preserveAspectRatio="xMidYMid meet" viewBox="0 0 640 640" width="640" height="640"><defs><path d="M9.82 356.49C38.77 406.6 104.4 520.28 133.34 570.4C146.42 593.06 170.61 607.03 196.77 607.06C254.6 607.08 385.69 607.14 443.52 607.17C469.68 607.2 493.86 593.23 506.94 570.57C535.83 520.48 601.32 406.89 630.2 356.83C643.28 334.14 643.26 306.2 630.18 283.54C601.23 233.43 535.6 119.75 506.66 69.63C493.58 46.94 469.39 32.97 443.23 32.97C385.4 32.94 254.31 32.86 196.48 32.83C170.32 32.83 146.14 46.8 133.06 69.46C104.17 119.55 38.68 233.11 9.8 283.2C-3.28 305.89 -3.26 333.8 9.82 356.49Z" id="b4hLsqVhtF"></path><path d="M465.29 287.64L468.53 289.34L471.57 291.34L474.41 293.64L476.97 296.22L479.29 299.03L481.27 302.1L482.96 305.34L484.31 308.78L485.31 312.4L485.92 316.16L486.15 320L485.92 323.87L485.31 327.63L484.31 331.24L482.96 334.69L481.27 337.93L479.29 340.97L476.97 343.81L474.41 346.36L471.57 348.69L468.53 350.66L465.29 352.36L461.85 353.71L458.23 354.71L454.48 355.31L450.6 355.54L326.08 355.54L326.08 413.29L326.05 414.58L325.94 415.84L325.77 417.07L325.54 418.25L325.22 419.42L324.88 420.54L324.45 421.63L323.96 422.72L323.41 423.73L322.84 424.73L322.21 425.68L321.52 426.6L320.77 427.46L320 428.29L319.2 429.06L318.34 429.81L317.48 430.5L316.53 431.13L315.58 431.73L314.61 432.27L313.6 432.76L312.57 433.22L311.51 433.59L310.45 433.94L309.36 434.23L308.24 434.43L307.12 434.6L306 434.71L304.85 434.74L303.71 434.74L302.56 434.66L301.41 434.51L300.26 434.31L299.15 434.02L298 433.68L296.88 433.28L295.76 432.79L294.64 432.22L293.55 431.62L292.46 430.9L262.89 410.39L195.65 363.8L166.07 343.29L164.87 342.43L163.75 341.51L162.69 340.57L161.69 339.56L160.74 338.53L159.85 337.47L159.02 336.35L158.24 335.2L157.55 334.06L156.92 332.85L156.35 331.65L155.8 330.41L155.35 329.15L154.97 327.86L154.63 326.57L154.34 325.28L154.14 323.96L154 322.67L153.88 321.32L153.85 320L153.88 318.68L154 317.36L154.14 316.04L154.34 314.72L154.63 313.43L154.97 312.14L155.35 310.88L155.8 309.62L156.35 308.38L156.92 307.15L157.55 305.97L158.24 304.8L159.02 303.68L159.85 302.56L160.74 301.5L161.69 300.47L162.69 299.46L163.75 298.49L164.87 297.57L166.07 296.71L195.65 276.2L262.89 229.61L292.46 209.13L293.55 208.41L294.64 207.78L295.76 207.24L296.88 206.75L298 206.35L299.15 206L300.26 205.72L301.41 205.52L302.56 205.37L303.71 205.29L304.85 205.26L306 205.32L307.12 205.43L308.24 205.57L309.36 205.8L310.45 206.09L311.51 206.43L312.57 206.81L313.6 207.27L314.61 207.75L315.58 208.3L316.53 208.9L317.48 209.53L318.34 210.22L319.2 210.97L320 211.74L320.77 212.57L321.52 213.43L322.21 214.35L322.84 215.3L323.41 216.27L323.96 217.31L324.45 218.37L324.88 219.49L325.22 220.6L325.54 221.78L325.77 222.96L325.94 224.19L326.05 225.45L326.08 226.71L326.08 284.49L450.6 284.49L454.48 284.69L458.23 285.32L461.85 286.29L465.29 287.64Z" id="f3BaYxmpc"></path></defs><g><g><g><use xlink:href="#b4hLsqVhtF" opacity="1" fill="#5f5e5e" fill-opacity="1"></use><g><use xlink:href="#b4hLsqVhtF" opacity="1" fill-opacity="0" stroke="#000000" stroke-width="1" stroke-opacity="0"></use></g></g><g><use xlink:href="#f3BaYxmpc" opacity="1" fill="#ffffff" fill-opacity="1"></use><g><use xlink:href="#f3BaYxmpc" opacity="1" fill-opacity="0" stroke="#000000" stroke-width="1" stroke-opacity="0"></use></g></g></g></g></svg>