<?xml version="1.0" encoding="UTF-8" standalone="no"?>
<!DOCTYPE svg PUBLIC "-//W3C//DTD SVG 1.1//EN" "http://www.w3.org/Graphics/SVG/1.1/DTD/svg11.dtd">
<svg version="1.1" xmlns="http://www.w3.org/2000/svg" xmlns:xlink="http://www.w3.org/1999/xlink" preserveAspectRatio="xMidYMid meet" viewBox="0 0 640 640" width="640" height="640"><defs><path d="M9.82 356.46C38.77 406.57 104.4 520.28 133.34 570.4C146.42 593.06 170.61 607.03 196.77 607.03C254.6 607.06 385.69 607.14 443.52 607.17C469.68 607.17 493.86 593.2 506.94 570.54C535.83 520.45 601.32 406.89 630.2 356.8C643.28 334.11 643.26 306.2 630.18 283.54C601.23 233.43 535.6 119.72 506.66 69.6C493.58 46.94 469.39 32.97 443.23 32.94C385.4 32.92 254.31 32.86 196.48 32.83C170.32 32.8 146.14 46.77 133.06 69.43C104.17 119.52 38.68 233.11 9.8 283.17C-3.28 305.86 -3.26 333.8 9.82 356.46Z" id="a1s6e9XgTR"></path><path d="M253.65 161.91L254.86 162.17L256.03 162.52L257.18 162.92L258.3 163.41L259.39 163.98L260.45 164.61L261.48 165.33L262.49 166.13L263.43 166.99L264.32 167.91L265.15 168.94L265.96 170.03L266.67 171.18L277.86 190.54L277.98 190.51L280.18 189.85L282.42 189.25L284.69 188.68L286.95 188.13L289.25 187.62L291.54 187.16L293.84 186.73L296.16 186.33L298.49 185.95L300.84 185.64L303.19 185.35L305.57 185.09L307.95 184.89L310.33 184.72L312.74 184.58L315.15 184.49L317.56 184.43L320 184.4L326.05 184.52L332.05 184.89L337.99 185.49L343.84 186.33L349.6 187.39L355.31 188.68L360.93 190.17L366.44 191.89L371.86 193.84L377.2 195.96L382.42 198.29L387.53 200.81L392.55 203.54L397.42 206.43L402.18 209.53L406.8 212.77L411.31 216.22L415.64 219.8L419.85 223.56L423.93 227.49L427.86 231.53L431.61 235.75L435.2 240.11L438.64 244.61L441.88 249.23L444.98 253.99L447.88 258.87L450.6 263.89L453.13 269L455.45 274.22L457.58 279.55L459.53 284.98L461.22 290.48L462.74 296.11L464.03 301.81L465.09 307.58L465.92 313.43L466.53 319.37L466.9 325.36L467.01 331.42L466.9 337.47L466.53 343.46L465.92 349.4L465.09 355.25L464.03 361.02L462.74 366.73L461.22 372.35L459.53 377.86L457.58 383.28L455.45 388.62L453.13 393.84L450.6 398.94L447.88 403.96L444.98 408.84L441.88 413.6L438.64 418.22L435.2 422.72L431.61 427.05L427.86 431.27L423.93 435.34L419.85 439.27L415.64 443.03L411.31 446.62L406.8 450.06L402.18 453.3L397.42 456.4L392.55 459.3L387.53 462.02L382.42 464.55L377.2 466.87L371.86 468.99L366.44 470.91L360.93 472.64L355.31 474.16L349.6 475.45L343.84 476.51L337.99 477.34L332.05 477.94L326.05 478.31L320 478.43L313.95 478.31L307.95 477.94L302.01 477.34L296.16 476.51L290.4 475.45L284.69 474.16L279.07 472.64L273.56 470.91L268.14 468.99L262.8 466.87L257.58 464.55L252.47 462.02L247.45 459.3L242.58 456.4L237.82 453.3L233.2 450.06L228.69 446.62L224.33 443.03L220.15 439.27L216.07 435.34L212.14 431.27L208.39 427.05L204.8 422.72L201.36 418.22L198.12 413.6L195.02 408.84L192.12 403.96L189.4 398.94L186.87 393.84L184.55 388.62L182.42 383.28L180.47 377.86L178.75 372.35L177.72 368.42L177.72 368.42L177.12 364.58L176.97 360.79L177.29 357.06L178.01 353.42L179.1 349.92L180.59 346.56L182.42 343.41L184.6 340.45L187.1 337.73L189.88 335.32L192.95 333.17L196.28 331.39L199.84 329.95L203.62 328.92L207.5 328.32L211.34 328.15L215.1 328.43L218.77 329.12L222.3 330.21L225.68 331.65L228.87 333.45L231.85 335.58L234.57 338.04L237.01 340.8L239.16 343.81L240.97 347.08L242.38 350.61L243.41 354.34L243.32 354.37L244.04 356.69L245.25 360.07L246.59 363.37L248.09 366.61L249.72 369.74L251.5 372.81L253.39 375.79L255.4 378.66L257.55 381.47L259.82 384.17L262.2 386.75L264.67 389.22L267.25 391.6L269.94 393.87L272.76 396.02L275.62 398.02L278.61 399.92L281.68 401.7L284.8 403.3L288.04 404.82L291.34 406.17L294.7 407.38L298.14 408.44L301.64 409.33L305.23 410.1L308.84 410.67L312.51 411.1L316.24 411.36L320 411.45L323.76 411.36L327.49 411.1L331.16 410.67L334.77 410.1L338.33 409.33L341.86 408.44L345.3 407.38L348.66 406.17L351.96 404.82L355.2 403.3L358.32 401.7L361.39 399.92L364.38 398.02L367.24 396.02L370.06 393.87L372.75 391.6L375.33 389.22L377.8 386.75L380.18 384.17L382.45 381.47L384.6 378.66L386.61 375.79L388.5 372.81L390.28 369.74L391.89 366.61L393.41 363.37L394.75 360.07L395.96 356.69L397.02 353.28L397.91 349.75L398.68 346.19L399.26 342.58L399.69 338.9L399.95 335.17L400.03 331.42L399.95 327.66L399.69 323.93L399.26 320.26L398.68 316.64L397.91 313.06L397.02 309.56L395.96 306.12L394.75 302.76L393.41 299.46L391.89 296.22L390.28 293.09L388.5 290.02L386.61 287.04L384.6 284.14L382.45 281.36L380.18 278.66L377.8 276.08L375.33 273.59L372.75 271.23L370.06 268.97L367.24 266.82L364.38 264.81L361.39 262.92L358.32 261.14L355.2 259.5L351.96 258.01L348.66 256.66L345.3 255.46L341.86 254.4L338.33 253.48L334.77 252.73L331.16 252.16L327.49 251.73L323.76 251.47L320 251.38L316.24 251.47L313.14 251.67L323.36 269.37L324.02 270.58L324.56 271.81L325.02 273.04L325.36 274.28L325.65 275.54L325.85 276.8L325.94 278.03L325.97 279.3L325.91 280.53L325.77 281.73L325.56 282.94L325.25 284.11L324.91 285.29L324.45 286.41L323.96 287.53L323.38 288.59L322.75 289.62L322.04 290.63L321.29 291.57L320.46 292.46L319.6 293.32L318.65 294.13L317.68 294.84L316.64 295.53L315.55 296.13L314.41 296.68L313.23 297.14L312.03 297.54L310.76 297.85L309.47 298.08L308.12 298.2L306.75 298.26L282.62 298.37L216.22 298.66L192.09 298.74L190.71 298.72L189.4 298.57L188.1 298.34L186.84 298.06L185.64 297.68L184.46 297.22L183.34 296.68L182.28 296.11L181.25 295.42L180.27 294.7L179.33 293.92L178.47 293.09L177.63 292.2L176.89 291.26L176.2 290.28L175.57 289.25L175 288.19L174.48 287.1L174.05 285.98L173.7 284.83L173.39 283.66L173.19 282.45L173.04 281.25L172.99 280.01L173.02 278.78L173.1 277.55L173.3 276.31L173.59 275.08L173.93 273.85L174.39 272.61L174.97 271.41L175.6 270.2L187.76 249.35L221.21 191.98L233.34 171.12L234.09 169.95L234.86 168.89L235.72 167.85L236.61 166.93L237.56 166.07L238.56 165.27L239.59 164.58L240.66 163.92L241.77 163.38L242.89 162.89L244.04 162.49L245.22 162.14L246.42 161.89L247.6 161.71L248.83 161.6L250.04 161.57L251.24 161.6L252.45 161.71L253.65 161.91Z" id="b1nMtx0Mmi"></path></defs><g><g><g><use xlink:href="#a1s6e9XgTR" opacity="1" fill="#5f5e5e" fill-opacity="1"></use><g><use xlink:href="#a1s6e9XgTR" opacity="1" fill-opacity="0" stroke="#000000" stroke-width="1" stroke-opacity="0"></use></g></g><g><use xlink:href="#b1nMtx0Mmi" opacity="1" fill="#ffffff" fill-opacity="1"></use><g><use xlink:href="#b1nMtx0Mmi" opacity="1" fill-opacity="0" stroke="#000000" stroke-width="1" stroke-opacity="0"></use></g></g></g></g></svg>