<?xml version="1.0" encoding="UTF-8" standalone="no"?>
<!DOCTYPE svg PUBLIC "-//W3C//DTD SVG 1.1//EN" "http://www.w3.org/Graphics/SVG/1.1/DTD/svg11.dtd">
<svg version="1.1" xmlns="http://www.w3.org/2000/svg" xmlns:xlink="http://www.w3.org/1999/xlink" preserveAspectRatio="xMidYMid meet" viewBox="0 0 640 640" width="640" height="640"><defs><path d="M211.86 304.71C207.3 312.62 207.31 322.36 211.87 330.26C221.96 347.73 244.84 387.37 254.93 404.84C259.49 412.74 267.92 417.61 277.04 417.61C297.2 417.62 342.9 417.65 363.06 417.66C372.18 417.66 380.61 412.79 385.17 404.89C395.24 387.43 418.07 347.84 428.14 330.38C432.7 322.47 432.69 312.74 428.13 304.84C418.04 287.37 395.16 247.73 385.07 230.26C380.51 222.36 372.08 217.49 362.96 217.48C342.8 217.47 297.1 217.45 276.94 217.44C267.82 217.43 259.39 222.3 254.83 230.2C244.76 247.66 221.93 287.26 211.86 304.71Z" id="a7kX9AhVVz"></path><path d="M296.45 262.37L296.87 262.44L297.29 262.53L297.7 262.65L298.1 262.79L298.49 262.96L298.87 263.16L299.24 263.38L299.6 263.63L299.95 263.91L300.28 264.21L300.59 264.53L300.88 264.89L301.16 265.27L301.41 265.67L305.31 272.42L305.35 272.41L306.12 272.18L306.9 271.97L307.69 271.77L308.48 271.58L309.28 271.4L310.08 271.24L310.88 271.09L311.69 270.95L312.5 270.82L313.32 270.71L314.14 270.61L314.97 270.52L315.8 270.45L316.63 270.39L317.47 270.34L318.31 270.31L319.15 270.29L320 270.28L322.11 270.32L324.2 270.45L326.27 270.66L328.31 270.95L330.32 271.32L332.31 271.77L334.27 272.29L336.19 272.89L338.08 273.57L339.94 274.31L341.76 275.12L343.54 276L345.29 276.95L346.99 277.96L348.65 279.04L350.26 280.17L351.83 281.37L353.34 282.62L354.81 283.93L356.23 285.3L357.6 286.71L358.91 288.18L360.16 289.7L361.36 291.27L362.49 292.88L363.57 294.54L364.58 296.24L365.53 297.99L366.41 299.77L367.22 301.59L367.96 303.45L368.64 305.34L369.23 307.26L369.76 309.22L370.21 311.21L370.58 313.22L370.87 315.26L371.08 317.33L371.21 319.42L371.25 321.53L371.21 323.64L371.08 325.73L370.87 327.8L370.58 329.84L370.21 331.85L369.76 333.84L369.23 335.8L368.64 337.72L367.96 339.61L367.22 341.47L366.41 343.29L365.53 345.07L364.58 346.82L363.57 348.52L362.49 350.18L361.36 351.79L360.16 353.36L358.91 354.87L357.6 356.34L356.23 357.76L354.81 359.13L353.34 360.44L351.83 361.69L350.26 362.89L348.65 364.02L346.99 365.1L345.29 366.11L343.54 367.06L341.76 367.94L339.94 368.75L338.08 369.49L336.19 370.16L334.27 370.76L332.31 371.29L330.32 371.74L328.31 372.11L326.27 372.4L324.2 372.61L322.11 372.74L320 372.78L317.89 372.74L315.8 372.61L313.73 372.4L311.69 372.11L309.68 371.74L307.69 371.29L305.73 370.76L303.81 370.16L301.92 369.49L300.06 368.75L298.24 367.94L296.46 367.06L294.71 366.11L293.01 365.1L291.35 364.02L289.74 362.89L288.17 361.69L286.65 360.44L285.19 359.13L283.77 357.76L282.4 356.34L281.09 354.87L279.84 353.36L278.64 351.79L277.51 350.18L276.43 348.52L275.42 346.82L274.47 345.07L273.59 343.29L272.78 341.47L272.04 339.61L271.36 337.72L270.76 335.8L270.4 334.43L270.4 334.43L270.19 333.09L270.14 331.77L270.25 330.47L270.5 329.2L270.88 327.98L271.4 326.81L272.04 325.71L272.8 324.68L273.67 323.73L274.64 322.89L275.71 322.14L276.87 321.52L278.11 321.02L279.43 320.66L280.78 320.45L282.12 320.39L283.43 320.49L284.71 320.73L285.94 321.11L287.12 321.61L288.23 322.24L289.27 322.98L290.22 323.84L291.07 324.8L291.82 325.85L292.45 326.99L292.94 328.22L293.3 329.52L293.27 329.53L293.52 330.34L293.94 331.52L294.41 332.67L294.93 333.8L295.5 334.89L296.12 335.96L296.78 337L297.48 338L298.23 338.98L299.02 339.92L299.85 340.82L300.71 341.68L301.61 342.51L302.55 343.3L303.53 344.05L304.53 344.75L305.57 345.41L306.64 346.03L307.73 346.59L308.86 347.12L310.01 347.59L311.18 348.01L312.38 348.38L313.6 348.69L314.85 348.96L316.11 349.16L317.39 349.31L318.69 349.4L320 349.43L321.31 349.4L322.61 349.31L323.89 349.16L325.15 348.96L326.39 348.69L327.62 348.38L328.82 348.01L329.99 347.59L331.14 347.12L332.27 346.59L333.36 346.03L334.43 345.41L335.47 344.75L336.47 344.05L337.45 343.3L338.39 342.51L339.29 341.68L340.15 340.82L340.98 339.92L341.77 338.98L342.52 338L343.22 337L343.88 335.96L344.5 334.89L345.06 333.8L345.59 332.67L346.06 331.52L346.48 330.34L346.85 329.15L347.16 327.92L347.43 326.68L347.63 325.42L347.78 324.14L347.87 322.84L347.9 321.53L347.87 320.22L347.78 318.92L347.63 317.64L347.43 316.38L347.16 315.13L346.85 313.91L346.48 312.71L346.06 311.54L345.59 310.39L345.06 309.26L344.5 308.17L343.88 307.1L343.22 306.06L342.52 305.05L341.77 304.08L340.98 303.14L340.15 302.24L339.29 301.37L338.39 300.55L337.45 299.76L336.47 299.01L335.47 298.31L334.43 297.65L333.36 297.03L332.27 296.46L331.14 295.94L329.99 295.47L328.82 295.05L327.62 294.68L326.39 294.36L325.15 294.1L323.89 293.9L322.61 293.75L321.31 293.66L320 293.63L318.69 293.66L317.61 293.73L321.17 299.9L321.4 300.32L321.59 300.75L321.75 301.18L321.87 301.61L321.97 302.05L322.04 302.49L322.07 302.92L322.08 303.36L322.06 303.79L322.01 304.21L321.94 304.63L321.83 305.04L321.71 305.45L321.55 305.84L321.38 306.23L321.18 306.6L320.96 306.96L320.71 307.31L320.45 307.64L320.16 307.95L319.86 308.25L319.53 308.53L319.19 308.78L318.83 309.02L318.45 309.23L318.05 309.42L317.64 309.58L317.22 309.72L316.78 309.83L316.33 309.91L315.86 309.95L315.38 309.97L306.97 310.01L283.82 310.11L275.41 310.14L274.93 310.13L274.47 310.08L274.02 310L273.58 309.9L273.16 309.77L272.75 309.61L272.36 309.42L271.99 309.22L271.63 308.98L271.29 308.73L270.96 308.46L270.66 308.17L270.37 307.86L270.11 307.53L269.87 307.19L269.65 306.83L269.45 306.46L269.27 306.08L269.12 305.69L269 305.29L268.89 304.88L268.82 304.46L268.77 304.04L268.75 303.61L268.76 303.18L268.79 302.75L268.86 302.32L268.96 301.89L269.08 301.46L269.24 301.03L269.44 300.61L269.66 300.19L273.9 292.92L285.56 272.92L289.79 265.65L290.05 265.24L290.32 264.87L290.62 264.51L290.93 264.19L291.26 263.89L291.61 263.61L291.97 263.37L292.34 263.14L292.73 262.95L293.12 262.78L293.52 262.64L293.93 262.52L294.35 262.43L294.76 262.37L295.19 262.33L295.61 262.32L296.03 262.33L296.45 262.37Z" id="c72Y66OJvC"></path></defs><g><g><g><g><filter id="shadow9005048" x="195.45" y="204.44" width="254.11" height="231.22" filterUnits="userSpaceOnUse" primitiveUnits="userSpaceOnUse"><feFlood></feFlood><feComposite in2="SourceAlpha" operator="in"></feComposite><feGaussianBlur stdDeviation="1"></feGaussianBlur><feOffset dx="5" dy="5" result="afterOffset"></feOffset><feFlood flood-color="#000000" flood-opacity="0.75"></feFlood><feComposite in2="afterOffset" operator="in"></feComposite><feMorphology operator="dilate" radius="1"></feMorphology><feComposite in2="SourceAlpha" operator="out"></feComposite></filter><path d="M211.86 304.71C207.3 312.62 207.31 322.36 211.87 330.26C221.96 347.73 244.84 387.37 254.93 404.84C259.49 412.74 267.92 417.61 277.04 417.61C297.2 417.62 342.9 417.65 363.06 417.66C372.18 417.66 380.61 412.79 385.17 404.89C395.24 387.43 418.07 347.84 428.14 330.38C432.7 322.47 432.69 312.74 428.13 304.84C418.04 287.37 395.16 247.73 385.07 230.26C380.51 222.36 372.08 217.49 362.96 217.48C342.8 217.47 297.1 217.45 276.94 217.44C267.82 217.43 259.39 222.3 254.83 230.2C244.76 247.66 221.93 287.26 211.86 304.71Z" id="aljvDmHew" fill="white" fill-opacity="1" filter="url(#shadow9005048)"></path></g><use xlink:href="#a7kX9AhVVz" opacity="1" fill="#5f5e5e" fill-opacity="1"></use></g><g><g><filter id="shadow4227690" x="256.75" y="250.32" width="130.5" height="138.46" filterUnits="userSpaceOnUse" primitiveUnits="userSpaceOnUse"><feFlood></feFlood><feComposite in2="SourceAlpha" operator="in"></feComposite><feGaussianBlur stdDeviation="1"></feGaussianBlur><feOffset dx="4" dy="4" result="afterOffset"></feOffset><feFlood flood-color="#000000" flood-opacity="0.5"></feFlood><feComposite in2="afterOffset" operator="in"></feComposite><feMorphology operator="dilate" radius="1"></feMorphology><feComposite in2="SourceAlpha" operator="out"></feComposite></filter><path d="M296.45 262.37L296.87 262.44L297.29 262.53L297.7 262.65L298.1 262.79L298.49 262.96L298.87 263.16L299.24 263.38L299.6 263.63L299.95 263.91L300.28 264.21L300.59 264.53L300.88 264.89L301.16 265.27L301.41 265.67L305.31 272.42L305.35 272.41L306.12 272.18L306.9 271.97L307.69 271.77L308.48 271.58L309.28 271.4L310.08 271.24L310.88 271.09L311.69 270.95L312.5 270.82L313.32 270.71L314.14 270.61L314.97 270.52L315.8 270.45L316.63 270.39L317.47 270.34L318.31 270.31L319.15 270.29L320 270.28L322.11 270.32L324.2 270.45L326.27 270.66L328.31 270.95L330.32 271.32L332.31 271.77L334.27 272.29L336.19 272.89L338.08 273.57L339.94 274.31L341.76 275.12L343.54 276L345.29 276.95L346.99 277.96L348.65 279.04L350.26 280.17L351.83 281.37L353.34 282.62L354.81 283.93L356.23 285.3L357.6 286.71L358.91 288.18L360.16 289.7L361.36 291.27L362.49 292.88L363.57 294.54L364.58 296.24L365.53 297.99L366.41 299.77L367.22 301.59L367.96 303.45L368.64 305.34L369.23 307.26L369.76 309.22L370.21 311.21L370.58 313.22L370.87 315.26L371.08 317.33L371.21 319.42L371.25 321.53L371.21 323.64L371.08 325.73L370.87 327.8L370.58 329.84L370.21 331.85L369.76 333.84L369.23 335.8L368.64 337.72L367.96 339.61L367.22 341.47L366.41 343.29L365.53 345.07L364.58 346.82L363.57 348.52L362.49 350.18L361.36 351.79L360.16 353.36L358.91 354.87L357.6 356.34L356.23 357.76L354.81 359.13L353.34 360.44L351.83 361.69L350.26 362.89L348.65 364.02L346.99 365.1L345.29 366.11L343.54 367.06L341.76 367.94L339.94 368.75L338.08 369.49L336.19 370.16L334.27 370.76L332.31 371.29L330.32 371.74L328.31 372.11L326.27 372.4L324.2 372.61L322.11 372.74L320 372.78L317.89 372.74L315.8 372.61L313.73 372.4L311.69 372.11L309.68 371.74L307.69 371.29L305.73 370.76L303.81 370.16L301.92 369.49L300.06 368.75L298.24 367.94L296.46 367.06L294.71 366.11L293.01 365.1L291.35 364.02L289.74 362.89L288.17 361.69L286.65 360.44L285.19 359.13L283.77 357.76L282.4 356.34L281.09 354.87L279.84 353.36L278.64 351.79L277.51 350.18L276.43 348.52L275.42 346.82L274.47 345.07L273.59 343.29L272.78 341.47L272.04 339.61L271.36 337.72L270.76 335.8L270.4 334.43L270.4 334.43L270.19 333.09L270.14 331.77L270.25 330.47L270.5 329.2L270.88 327.98L271.4 326.81L272.04 325.71L272.8 324.68L273.67 323.73L274.64 322.89L275.71 322.14L276.87 321.52L278.11 321.02L279.43 320.66L280.78 320.45L282.12 320.39L283.43 320.49L284.71 320.73L285.94 321.11L287.12 321.61L288.23 322.24L289.27 322.98L290.22 323.84L291.07 324.8L291.82 325.85L292.45 326.99L292.94 328.22L293.3 329.52L293.27 329.53L293.52 330.34L293.94 331.52L294.41 332.67L294.93 333.8L295.5 334.89L296.12 335.96L296.78 337L297.48 338L298.23 338.98L299.02 339.92L299.85 340.82L300.71 341.68L301.61 342.51L302.55 343.3L303.53 344.05L304.53 344.75L305.57 345.41L306.64 346.03L307.73 346.59L308.86 347.12L310.01 347.59L311.18 348.01L312.38 348.38L313.6 348.69L314.85 348.96L316.11 349.16L317.39 349.31L318.69 349.4L320 349.43L321.31 349.4L322.61 349.31L323.89 349.16L325.15 348.96L326.39 348.69L327.62 348.38L328.82 348.01L329.99 347.59L331.14 347.12L332.27 346.59L333.36 346.03L334.43 345.41L335.47 344.75L336.47 344.05L337.45 343.3L338.39 342.51L339.29 341.68L340.15 340.82L340.98 339.92L341.77 338.98L342.52 338L343.22 337L343.88 335.96L344.5 334.89L345.06 333.8L345.59 332.67L346.06 331.52L346.48 330.34L346.85 329.15L347.16 327.92L347.43 326.68L347.63 325.42L347.78 324.14L347.87 322.84L347.9 321.53L347.87 320.22L347.78 318.92L347.63 317.64L347.43 316.38L347.16 315.13L346.85 313.91L346.48 312.71L346.06 311.54L345.59 310.39L345.06 309.26L344.5 308.17L343.88 307.1L343.22 306.06L342.52 305.05L341.77 304.08L340.98 303.14L340.15 302.24L339.29 301.37L338.39 300.55L337.45 299.76L336.47 299.01L335.47 298.31L334.43 297.65L333.36 297.03L332.27 296.46L331.14 295.94L329.99 295.47L328.82 295.05L327.62 294.68L326.39 294.36L325.15 294.1L323.89 293.9L322.61 293.75L321.31 293.66L320 293.63L318.69 293.66L317.61 293.73L321.17 299.9L321.4 300.32L321.59 300.75L321.75 301.18L321.87 301.61L321.97 302.05L322.04 302.49L322.07 302.92L322.08 303.36L322.06 303.79L322.01 304.21L321.94 304.63L321.83 305.04L321.71 305.45L321.55 305.84L321.38 306.23L321.18 306.6L320.96 306.96L320.71 307.31L320.45 307.64L320.16 307.95L319.86 308.25L319.53 308.53L319.19 308.78L318.83 309.02L318.45 309.23L318.05 309.42L317.64 309.58L317.22 309.72L316.78 309.83L316.33 309.91L315.86 309.95L315.38 309.97L306.97 310.01L283.82 310.11L275.41 310.14L274.93 310.13L274.47 310.08L274.02 310L273.58 309.9L273.16 309.77L272.75 309.61L272.36 309.42L271.99 309.22L271.63 308.98L271.29 308.73L270.96 308.46L270.66 308.17L270.37 307.86L270.11 307.53L269.87 307.19L269.65 306.83L269.45 306.46L269.27 306.08L269.12 305.69L269 305.29L268.89 304.88L268.82 304.46L268.77 304.04L268.75 303.61L268.76 303.18L268.79 302.75L268.86 302.32L268.96 301.89L269.08 301.46L269.24 301.03L269.44 300.61L269.66 300.19L273.9 292.92L285.56 272.92L289.79 265.65L290.05 265.24L290.32 264.87L290.62 264.51L290.93 264.19L291.26 263.89L291.61 263.61L291.97 263.37L292.34 263.14L292.73 262.95L293.12 262.78L293.52 262.64L293.93 262.52L294.35 262.43L294.76 262.37L295.19 262.33L295.61 262.32L296.03 262.33L296.45 262.37Z" id="bP3fjB0qK" fill="white" fill-opacity="1" filter="url(#shadow4227690)"></path></g><use xlink:href="#c72Y66OJvC" opacity="1" fill="#ffffff" fill-opacity="1"></use></g></g></g></svg>